{
  "cells": [
    {
      "cell_type": "markdown",
      "metadata": {},
      "source": [
        "## 前提条件\n",
        "- 使用python 3.8"
      ]
    },
    {
      "cell_type": "markdown",
      "metadata": {},
      "source": [
        "### 只需要第一次执行"
      ]
    },
    {
      "cell_type": "code",
      "execution_count": null,
      "metadata": {},
      "outputs": [],
      "source": [
        "!pip install --use-pep517 basicsr"
      ]
    },
    {
      "cell_type": "code",
      "execution_count": null,
      "metadata": {},
      "outputs": [],
      "source": [
        "!pip install -r requirements.txt"
      ]
    },
    {
      "cell_type": "code",
      "execution_count": null,
      "metadata": {},
      "outputs": [
        {
          "name": "stdout",
          "output_type": "stream",
          "text": [
            "content/Wav2Lip-master/face_detection/detection/sfd/s3fd.pth: No such file or directory\n",
            "/bin/bash: line 1: gdown: command not found\n"
          ]
        }
      ],
      "source": [
        "\n",
        "!wget 'https://www.adrianbulat.com/downloads/python-fan/s3fd-619a316812.pth' -O {wav2lipPath}'/face_detection/detection/sfd/s3fd.pth'\n",
        "!gdown https://drive.google.com/uc?id=1fQtBSYEyuai9MjBOF8j7zZ4oQ9W2N64q --output {wav2lipPath}'/checkpoints/'\n",
        "!wget https://github.com/TencentARC/GFPGAN/releases/download/v1.3.0/GFPGANv1.3.pth -P {gfpganFolderName}'/experiments/pretrained_models'\n",
        "!wget https://github.com/TencentARC/GFPGAN/releases/download/v1.4.0/GFPGANv1.4.pth -P {gfpganFolderName}'/experiments/pretrained_models'"
      ]
    },
    {
      "cell_type": "code",
      "execution_count": null,
      "metadata": {},
      "outputs": [
        {
          "name": "stdout",
          "output_type": "stream",
          "text": [
            "/home/richardliu/code/github.com/c4fun/Wav2Lip-GFPGAN\n"
          ]
        }
      ],
      "source": [
        "#!git clone https://github.com/ajay-sainy/Wav2Lip-GFPGAN.git\n",
        "basePath = \"/home/richardliu/code/github.com/c4fun/Wav2Lip-GFPGAN\"\n",
        "%cd {basePath}"
      ]
    },
    {
      "cell_type": "code",
      "execution_count": null,
      "metadata": {},
      "outputs": [],
      "source": [
        "wav2lipFolderName = 'Wav2Lip-master'\n",
        "gfpganFolderName = 'GFPGAN-master'\n",
        "wav2lipPath = basePath + '/' + wav2lipFolderName\n",
        "gfpganPath = basePath + '/' + gfpganFolderName"
      ]
    },
    {
      "cell_type": "code",
      "execution_count": null,
      "metadata": {},
      "outputs": [],
      "source": [
        "!cd $gfpganFolderName\n",
        "!pip install -r requirements.txt"
      ]
    },
    {
      "cell_type": "markdown",
      "metadata": {},
      "source": [
        "### 每次都要执行"
      ]
    },
    {
      "cell_type": "code",
      "execution_count": 1,
      "metadata": {},
      "outputs": [
        {
          "name": "stdout",
          "output_type": "stream",
          "text": [
            "/home/richardliu/code/github.com/c4fun/Wav2Lip-GFPGAN\n"
          ]
        }
      ],
      "source": [
        "#!git clone https://github.com/ajay-sainy/Wav2Lip-GFPGAN.git\n",
        "basePath = \"/home/richardliu/code/github.com/c4fun/Wav2Lip-GFPGAN\"\n",
        "%cd {basePath}"
      ]
    },
    {
      "cell_type": "code",
      "execution_count": 2,
      "metadata": {},
      "outputs": [],
      "source": [
        "wav2lipFolderName = 'Wav2Lip-master'\n",
        "gfpganFolderName = 'GFPGAN-master'\n",
        "wav2lipPath = basePath + '/' + wav2lipFolderName\n",
        "gfpganPath = basePath + '/' + gfpganFolderName"
      ]
    },
    {
      "cell_type": "markdown",
      "metadata": {},
      "source": [
        "## Wav2Lip"
      ]
    },
    {
      "cell_type": "code",
      "execution_count": null,
      "metadata": {},
      "outputs": [],
      "source": [
        "## Kim Kardashin and Reah Horn\n",
        "import os\n",
        "outputPath = basePath+'/outputs'\n",
        "inputAudioPath = basePath + '/inputs/kim_audio.mp3'\n",
        "inputVideoPath = basePath + '/inputs/kimk_7s_raw.mp4'\n",
        "lipSyncedOutputPath = basePath + '/outputs/result.mp4'\n",
        "\n",
        "if not os.path.exists(outputPath):\n",
        "  os.makedirs(outputPath)"
      ]
    },
    {
      "cell_type": "code",
      "execution_count": 8,
      "metadata": {},
      "outputs": [],
      "source": [
        "## J.Huang and Linus Torvald\n",
        "import os\n",
        "outputPath = basePath+'/outputs'\n",
        "inputAudioPath = basePath + '/inputs/linust.mp3'\n",
        "inputVideoPath = basePath + '/inputs/jhuang.mp4'\n",
        "lipSyncedOutputPath = basePath + '/outputs/result.mp4'\n",
        "\n",
        "if not os.path.exists(outputPath):\n",
        "  os.makedirs(outputPath)"
      ]
    },
    {
      "cell_type": "code",
      "execution_count": 9,
      "metadata": {},
      "outputs": [
        {
          "name": "stdout",
          "output_type": "stream",
          "text": [
            "Using cuda for inference.\n",
            "Reading video frames...\n",
            "Number of frames available for inference: 330\n",
            "Extracting raw audio...\n",
            "ffmpeg version 4.4.2-0ubuntu0.22.04.1 Copyright (c) 2000-2021 the FFmpeg developers\n",
            "  built with gcc 11 (Ubuntu 11.2.0-19ubuntu1)\n",
            "  configuration: --prefix=/usr --extra-version=0ubuntu0.22.04.1 --toolchain=hardened --libdir=/usr/lib/x86_64-linux-gnu --incdir=/usr/include/x86_64-linux-gnu --arch=amd64 --enable-gpl --disable-stripping --enable-gnutls --enable-ladspa --enable-libaom --enable-libass --enable-libbluray --enable-libbs2b --enable-libcaca --enable-libcdio --enable-libcodec2 --enable-libdav1d --enable-libflite --enable-libfontconfig --enable-libfreetype --enable-libfribidi --enable-libgme --enable-libgsm --enable-libjack --enable-libmp3lame --enable-libmysofa --enable-libopenjpeg --enable-libopenmpt --enable-libopus --enable-libpulse --enable-librabbitmq --enable-librubberband --enable-libshine --enable-libsnappy --enable-libsoxr --enable-libspeex --enable-libsrt --enable-libssh --enable-libtheora --enable-libtwolame --enable-libvidstab --enable-libvorbis --enable-libvpx --enable-libwebp --enable-libx265 --enable-libxml2 --enable-libxvid --enable-libzimg --enable-libzmq --enable-libzvbi --enable-lv2 --enable-omx --enable-openal --enable-opencl --enable-opengl --enable-sdl2 --enable-pocketsphinx --enable-librsvg --enable-libmfx --enable-libdc1394 --enable-libdrm --enable-libiec61883 --enable-chromaprint --enable-frei0r --enable-libx264 --enable-shared\n",
            "  libavutil      56. 70.100 / 56. 70.100\n",
            "  libavcodec     58.134.100 / 58.134.100\n",
            "  libavformat    58. 76.100 / 58. 76.100\n",
            "  libavdevice    58. 13.100 / 58. 13.100\n",
            "  libavfilter     7.110.100 /  7.110.100\n",
            "  libswscale      5.  9.100 /  5.  9.100\n",
            "  libswresample   3.  9.100 /  3.  9.100\n",
            "  libpostproc    55.  9.100 / 55.  9.100\n",
            "Input #0, mp3, from '/home/richardliu/code/github.com/c4fun/Wav2Lip-GFPGAN/inputs/linust.mp3':\n",
            "  Metadata:\n",
            "    major_brand     : isom\n",
            "    minor_version   : 512\n",
            "    compatible_brands: isomiso2avc1mp41\n",
            "    encoder         : Lavf58.76.100\n",
            "  Duration: 00:00:11.05, start: 0.025057, bitrate: 192 kb/s\n",
            "  Stream #0:0: Audio: mp3, 44100 Hz, stereo, fltp, 192 kb/s\n",
            "    Metadata:\n",
            "      encoder         : Lavc58.13\n",
            "Stream mapping:\n",
            "  Stream #0:0 -> #0:0 (mp3 (mp3float) -> pcm_s16le (native))\n",
            "Press [q] to stop, [?] for help\n",
            "Output #0, wav, to 'temp/temp.wav':\n",
            "  Metadata:\n",
            "    major_brand     : isom\n",
            "    minor_version   : 512\n",
            "    compatible_brands: isomiso2avc1mp41\n",
            "    ISFT            : Lavf58.76.100\n",
            "  Stream #0:0: Audio: pcm_s16le ([1][0][0][0] / 0x0001), 44100 Hz, stereo, s16, 1411 kb/s\n",
            "    Metadata:\n",
            "      encoder         : Lavc58.134.100 pcm_s16le\n",
            "size=    1896kB time=00:00:10.99 bitrate=1412.2kbits/s speed=1.55e+03x    \n",
            "video:0kB audio:1896kB subtitle:0kB other streams:0kB global headers:0kB muxing overhead: 0.004018%\n",
            "(80, 881)\n",
            "Length of mel chunks: 326\n",
            "  0%|                                                     | 0/3 [00:00<?, ?it/s]\n",
            "  0%|                                                    | 0/21 [00:00<?, ?it/s]\u001b[A\n",
            "  5%|██                                          | 1/21 [00:03<01:09,  3.49s/it]\u001b[A\n",
            " 10%|████▏                                       | 2/21 [00:03<00:49,  2.59s/it]\u001b[A\n",
            " 14%|██████▎                                     | 3/21 [00:04<00:35,  1.95s/it]\u001b[A\n",
            " 19%|████████▍                                   | 4/21 [00:04<00:25,  1.50s/it]\u001b[A\n",
            " 24%|██████████▍                                 | 5/21 [00:05<00:19,  1.20s/it]\u001b[A\n",
            " 29%|████████████▌                               | 6/21 [00:05<00:14,  1.01it/s]\u001b[A\n",
            " 33%|██████████████▋                             | 7/21 [00:06<00:11,  1.20it/s]\u001b[A\n",
            " 38%|████████████████▊                           | 8/21 [00:06<00:09,  1.38it/s]\u001b[A\n",
            " 43%|██████████████████▊                         | 9/21 [00:07<00:07,  1.54it/s]\u001b[A\n",
            " 48%|████████████████████▍                      | 10/21 [00:07<00:06,  1.68it/s]\u001b[A\n",
            " 52%|██████████████████████▌                    | 11/21 [00:08<00:05,  1.81it/s]\u001b[A\n",
            " 57%|████████████████████████▌                  | 12/21 [00:08<00:04,  1.89it/s]\u001b[A\n",
            " 62%|██████████████████████████▌                | 13/21 [00:09<00:04,  1.93it/s]\u001b[A\n",
            " 67%|████████████████████████████▋              | 14/21 [00:09<00:03,  1.94it/s]\u001b[A\n",
            " 71%|██████████████████████████████▋            | 15/21 [00:10<00:02,  2.00it/s]\u001b[A\n",
            " 76%|████████████████████████████████▊          | 16/21 [00:10<00:02,  2.03it/s]\u001b[A\n",
            " 81%|██████████████████████████████████▊        | 17/21 [00:11<00:01,  2.06it/s]\u001b[A\n",
            " 86%|████████████████████████████████████▊      | 18/21 [00:11<00:01,  2.08it/s]\u001b[A\n",
            " 90%|██████████████████████████████████████▉    | 19/21 [00:12<00:00,  2.08it/s]\u001b[A\n",
            " 95%|████████████████████████████████████████▉  | 20/21 [00:12<00:00,  2.09it/s]\u001b[A\n",
            "100%|███████████████████████████████████████████| 21/21 [00:13<00:00,  1.51it/s]\u001b[A\n",
            "Load checkpoint from: checkpoints/wav2lip.pth\n",
            "Model loaded\n",
            "100%|█████████████████████████████████████████████| 3/3 [00:16<00:00,  5.52s/it]\n",
            "ffmpeg version 4.4.2-0ubuntu0.22.04.1 Copyright (c) 2000-2021 the FFmpeg developers\n",
            "  built with gcc 11 (Ubuntu 11.2.0-19ubuntu1)\n",
            "  configuration: --prefix=/usr --extra-version=0ubuntu0.22.04.1 --toolchain=hardened --libdir=/usr/lib/x86_64-linux-gnu --incdir=/usr/include/x86_64-linux-gnu --arch=amd64 --enable-gpl --disable-stripping --enable-gnutls --enable-ladspa --enable-libaom --enable-libass --enable-libbluray --enable-libbs2b --enable-libcaca --enable-libcdio --enable-libcodec2 --enable-libdav1d --enable-libflite --enable-libfontconfig --enable-libfreetype --enable-libfribidi --enable-libgme --enable-libgsm --enable-libjack --enable-libmp3lame --enable-libmysofa --enable-libopenjpeg --enable-libopenmpt --enable-libopus --enable-libpulse --enable-librabbitmq --enable-librubberband --enable-libshine --enable-libsnappy --enable-libsoxr --enable-libspeex --enable-libsrt --enable-libssh --enable-libtheora --enable-libtwolame --enable-libvidstab --enable-libvorbis --enable-libvpx --enable-libwebp --enable-libx265 --enable-libxml2 --enable-libxvid --enable-libzimg --enable-libzmq --enable-libzvbi --enable-lv2 --enable-omx --enable-openal --enable-opencl --enable-opengl --enable-sdl2 --enable-pocketsphinx --enable-librsvg --enable-libmfx --enable-libdc1394 --enable-libdrm --enable-libiec61883 --enable-chromaprint --enable-frei0r --enable-libx264 --enable-shared\n",
            "  libavutil      56. 70.100 / 56. 70.100\n",
            "  libavcodec     58.134.100 / 58.134.100\n",
            "  libavformat    58. 76.100 / 58. 76.100\n",
            "  libavdevice    58. 13.100 / 58. 13.100\n",
            "  libavfilter     7.110.100 /  7.110.100\n",
            "  libswscale      5.  9.100 /  5.  9.100\n",
            "  libswresample   3.  9.100 /  3.  9.100\n",
            "  libpostproc    55.  9.100 / 55.  9.100\n",
            "\u001b[0;33mGuessed Channel Layout for Input Stream #0.0 : stereo\n",
            "\u001b[0mInput #0, wav, from 'temp/temp.wav':\n",
            "  Metadata:\n",
            "    encoder         : Lavf58.76.100\n",
            "  Duration: 00:00:11.01, bitrate: 1411 kb/s\n",
            "  Stream #0:0: Audio: pcm_s16le ([1][0][0][0] / 0x0001), 44100 Hz, stereo, s16, 1411 kb/s\n",
            "Input #1, avi, from 'temp/result.avi':\n",
            "  Metadata:\n",
            "    software        : Lavf59.27.100\n",
            "  Duration: 00:00:10.88, start: 0.000000, bitrate: 3309 kb/s\n",
            "  Stream #1:0: Video: mpeg4 (Simple Profile) (DIVX / 0x58564944), yuv420p, 1280x720 [SAR 1:1 DAR 16:9], 3309 kb/s, 29.97 fps, 29.97 tbr, 29.97 tbn, 2997 tbc\n",
            "Stream mapping:\n",
            "  Stream #1:0 -> #0:0 (mpeg4 (native) -> h264 (libx264))\n",
            "  Stream #0:0 -> #0:1 (pcm_s16le (native) -> aac (native))\n",
            "Press [q] to stop, [?] for help\n",
            "\u001b[1;36m[libx264 @ 0x6026d8bec380] \u001b[0m\u001b[0;33m-qscale is ignored, -crf is recommended.\n",
            "\u001b[0m\u001b[1;36m[libx264 @ 0x6026d8bec380] \u001b[0musing SAR=1/1\n",
            "\u001b[1;36m[libx264 @ 0x6026d8bec380] \u001b[0musing cpu capabilities: MMX2 SSE2Fast SSSE3 SSE4.2 AVX FMA3 BMI2 AVX2\n",
            "\u001b[1;36m[libx264 @ 0x6026d8bec380] \u001b[0mprofile High, level 3.1, 4:2:0, 8-bit\n",
            "\u001b[1;36m[libx264 @ 0x6026d8bec380] \u001b[0m264 - core 163 r3060 5db6aa6 - H.264/MPEG-4 AVC codec - Copyleft 2003-2021 - http://www.videolan.org/x264.html - options: cabac=1 ref=3 deblock=1:0:0 analyse=0x3:0x113 me=hex subme=7 psy=1 psy_rd=1.00:0.00 mixed_ref=1 me_range=16 chroma_me=1 trellis=1 8x8dct=1 cqm=0 deadzone=21,11 fast_pskip=1 chroma_qp_offset=-2 threads=22 lookahead_threads=3 sliced_threads=0 nr=0 decimate=1 interlaced=0 bluray_compat=0 constrained_intra=0 bframes=3 b_pyramid=2 b_adapt=1 b_bias=0 direct=1 weightb=1 open_gop=0 weightp=2 keyint=250 keyint_min=25 scenecut=40 intra_refresh=0 rc_lookahead=40 rc=crf mbtree=1 crf=23.0 qcomp=0.60 qpmin=0 qpmax=69 qpstep=4 ip_ratio=1.40 aq=1:1.00\n",
            "Output #0, mp4, to '/home/richardliu/code/github.com/c4fun/Wav2Lip-GFPGAN/outputs/result.mp4':\n",
            "  Metadata:\n",
            "    encoder         : Lavf58.76.100\n",
            "  Stream #0:0: Video: h264 (avc1 / 0x31637661), yuv420p(progressive), 1280x720 [SAR 1:1 DAR 16:9], q=2-31, 29.97 fps, 30k tbn\n",
            "    Metadata:\n",
            "      encoder         : Lavc58.134.100 libx264\n",
            "    Side data:\n",
            "      cpb: bitrate max/min/avg: 0/0/0 buffer size: 0 vbv_delay: N/A\n",
            "  Stream #0:1: Audio: aac (LC) (mp4a / 0x6134706D), 44100 Hz, stereo, fltp, 128 kb/s\n",
            "    Metadata:\n",
            "      encoder         : Lavc58.134.100 aac\n",
            "frame=  326 fps=0.0 q=-1.0 Lsize=    1824kB time=00:00:10.98 bitrate=1360.6kbits/s speed=15.8x    \n",
            "video:1638kB audio:174kB subtitle:0kB other streams:0kB global headers:0kB muxing overhead: 0.644617%\n",
            "\u001b[1;36m[libx264 @ 0x6026d8bec380] \u001b[0mframe I:3     Avg QP:16.26  size: 21495\n",
            "\u001b[1;36m[libx264 @ 0x6026d8bec380] \u001b[0mframe P:226   Avg QP:20.83  size:  6315\n",
            "\u001b[1;36m[libx264 @ 0x6026d8bec380] \u001b[0mframe B:97    Avg QP:22.14  size:  1911\n",
            "\u001b[1;36m[libx264 @ 0x6026d8bec380] \u001b[0mconsecutive B-frames: 55.8% 11.0%  7.4% 25.8%\n",
            "\u001b[1;36m[libx264 @ 0x6026d8bec380] \u001b[0mmb I  I16..4: 39.0% 56.5%  4.5%\n",
            "\u001b[1;36m[libx264 @ 0x6026d8bec380] \u001b[0mmb P  I16..4:  2.1%  7.3%  0.2%  P16..4: 22.1%  4.9%  2.3%  0.0%  0.0%    skip:61.1%\n",
            "\u001b[1;36m[libx264 @ 0x6026d8bec380] \u001b[0mmb B  I16..4:  0.3%  0.7%  0.0%  B16..8: 20.4%  1.3%  0.1%  direct: 3.2%  skip:74.1%  L0:49.1% L1:46.9% BI: 4.1%\n",
            "\u001b[1;36m[libx264 @ 0x6026d8bec380] \u001b[0m8x8 transform intra:73.3% inter:81.6%\n",
            "\u001b[1;36m[libx264 @ 0x6026d8bec380] \u001b[0mcoded y,uvDC,uvAC intra: 21.4% 38.8% 6.8% inter: 6.1% 7.4% 0.2%\n",
            "\u001b[1;36m[libx264 @ 0x6026d8bec380] \u001b[0mi16 v,h,dc,p: 62% 24% 10%  3%\n",
            "\u001b[1;36m[libx264 @ 0x6026d8bec380] \u001b[0mi8 v,h,dc,ddl,ddr,vr,hd,vl,hu: 22% 15% 55%  1%  1%  2%  1%  1%  1%\n",
            "\u001b[1;36m[libx264 @ 0x6026d8bec380] \u001b[0mi4 v,h,dc,ddl,ddr,vr,hd,vl,hu: 40% 19% 14%  3%  5%  6%  5%  5%  3%\n",
            "\u001b[1;36m[libx264 @ 0x6026d8bec380] \u001b[0mi8c dc,h,v,p: 49% 23% 26%  2%\n",
            "\u001b[1;36m[libx264 @ 0x6026d8bec380] \u001b[0mWeighted P-Frames: Y:1.8% UV:0.0%\n",
            "\u001b[1;36m[libx264 @ 0x6026d8bec380] \u001b[0mref P L0: 73.5% 13.5%  9.7%  3.3%  0.1%\n",
            "\u001b[1;36m[libx264 @ 0x6026d8bec380] \u001b[0mref B L0: 89.9%  8.3%  1.8%\n",
            "\u001b[1;36m[libx264 @ 0x6026d8bec380] \u001b[0mref B L1: 97.3%  2.7%\n",
            "\u001b[1;36m[libx264 @ 0x6026d8bec380] \u001b[0mkb/s:1233.43\n",
            "\u001b[1;36m[aac @ 0x6026d8be7b80] \u001b[0mQavg: 1142.567\n"
          ]
        }
      ],
      "source": [
        "!cd $wav2lipFolderName && python inference.py \\\n",
        "--checkpoint_path checkpoints/wav2lip.pth \\\n",
        "--face {inputVideoPath} \\\n",
        "--audio {inputAudioPath} \\\n",
        "--outfile {lipSyncedOutputPath}"
      ]
    },
    {
      "cell_type": "markdown",
      "metadata": {},
      "source": [
        "- 生成了一个kim Kardashian的output（声音是Reah Horn的）\n",
        "- 嘴巴的效果还比较模糊，因为这里只有wav2lip，没有做GFPGAN的超分放大"
      ]
    },
    {
      "cell_type": "markdown",
      "metadata": {},
      "source": [
        "## GFPGAN"
      ]
    },
    {
      "cell_type": "code",
      "execution_count": 10,
      "metadata": {
        "id": "X_RNegAcISU2"
      },
      "outputs": [
        {
          "name": "stderr",
          "output_type": "stream",
          "text": [
            "  4%|▍         | 14/326 [00:00<00:02, 130.25it/s]"
          ]
        },
        {
          "name": "stdout",
          "output_type": "stream",
          "text": [
            "FPS:  29.97002997002997 Frames:  326\n"
          ]
        },
        {
          "name": "stderr",
          "output_type": "stream",
          "text": [
            "100%|██████████| 326/326 [00:01<00:00, 166.81it/s]\n"
          ]
        }
      ],
      "source": [
        "import cv2\n",
        "from tqdm import tqdm\n",
        "from os import path\n",
        "\n",
        "import os\n",
        "\n",
        "inputVideoPath = outputPath+'/result.mp4'\n",
        "unProcessedFramesFolderPath = outputPath+'/frames'\n",
        "\n",
        "if not os.path.exists(unProcessedFramesFolderPath):\n",
        "  os.makedirs(unProcessedFramesFolderPath)\n",
        "\n",
        "vidcap = cv2.VideoCapture(inputVideoPath)\n",
        "numberOfFrames = int(vidcap.get(cv2.CAP_PROP_FRAME_COUNT))\n",
        "fps = vidcap.get(cv2.CAP_PROP_FPS)\n",
        "print(\"FPS: \", fps, \"Frames: \", numberOfFrames)\n",
        "\n",
        "for frameNumber in tqdm(range(numberOfFrames)):\n",
        "    _,image = vidcap.read()\n",
        "    cv2.imwrite(path.join(unProcessedFramesFolderPath, str(frameNumber).zfill(4)+'.jpg'), image)\n"
      ]
    },
    {
      "cell_type": "code",
      "execution_count": 11,
      "metadata": {
        "id": "k6krjfxTJYlu"
      },
      "outputs": [
        {
          "name": "stdout",
          "output_type": "stream",
          "text": [
            "/opt/anaconda3/envs/wav2lip/lib/python3.8/site-packages/torchvision/transforms/functional_tensor.py:5: UserWarning: The torchvision.transforms.functional_tensor module is deprecated in 0.15 and will be **removed in 0.17**. Please don't rely on it. You probably just need to use APIs in torchvision.transforms.functional or in torchvision.transforms.v2.functional.\n",
            "  warnings.warn(\n",
            "/opt/anaconda3/envs/wav2lip/lib/python3.8/site-packages/torchvision/models/_utils.py:208: UserWarning: The parameter 'pretrained' is deprecated since 0.13 and may be removed in the future, please use 'weights' instead.\n",
            "  warnings.warn(\n",
            "/opt/anaconda3/envs/wav2lip/lib/python3.8/site-packages/torchvision/models/_utils.py:223: UserWarning: Arguments other than a weight enum or `None` for 'weights' are deprecated since 0.13 and may be removed in the future. The current behavior is equivalent to passing `weights=None`.\n",
            "  warnings.warn(msg)\n",
            "  0%|                                                   | 0/326 [00:00<?, ?it/s]Processing 0000.jpg ...\n",
            "  0%|▏                                          | 1/326 [00:00<02:15,  2.40it/s]Processing 0001.jpg ...\n",
            "  1%|▎                                          | 2/326 [00:00<01:52,  2.88it/s]Processing 0002.jpg ...\n",
            "  1%|▍                                          | 3/326 [00:00<01:36,  3.36it/s]Processing 0003.jpg ...\n",
            "  1%|▌                                          | 4/326 [00:00<01:25,  3.79it/s]Processing 0004.jpg ...\n",
            "  2%|▋                                          | 5/326 [00:01<01:17,  4.16it/s]Processing 0005.jpg ...\n",
            "  2%|▊                                          | 6/326 [00:01<01:11,  4.49it/s]Processing 0006.jpg ...\n",
            "  2%|▉                                          | 7/326 [00:01<01:07,  4.75it/s]Processing 0007.jpg ...\n",
            "  2%|█                                          | 8/326 [00:01<01:05,  4.88it/s]Processing 0008.jpg ...\n",
            "  3%|█▏                                         | 9/326 [00:01<01:03,  5.01it/s]Processing 0009.jpg ...\n",
            "  3%|█▎                                        | 10/326 [00:02<01:01,  5.12it/s]Processing 0010.jpg ...\n",
            "  3%|█▍                                        | 11/326 [00:02<01:02,  5.03it/s]Processing 0011.jpg ...\n",
            "  4%|█▌                                        | 12/326 [00:02<01:00,  5.15it/s]Processing 0012.jpg ...\n",
            "  4%|█▋                                        | 13/326 [00:02<01:00,  5.14it/s]Processing 0013.jpg ...\n",
            "  4%|█▊                                        | 14/326 [00:02<00:59,  5.20it/s]Processing 0014.jpg ...\n",
            "  5%|█▉                                        | 15/326 [00:03<00:58,  5.28it/s]Processing 0015.jpg ...\n",
            "  5%|██                                        | 16/326 [00:03<00:57,  5.35it/s]Processing 0016.jpg ...\n",
            "  5%|██▏                                       | 17/326 [00:03<00:57,  5.38it/s]Processing 0017.jpg ...\n",
            "  6%|██▎                                       | 18/326 [00:03<00:57,  5.34it/s]Processing 0018.jpg ...\n",
            "  6%|██▍                                       | 19/326 [00:03<00:57,  5.37it/s]Processing 0019.jpg ...\n",
            "  6%|██▌                                       | 20/326 [00:03<00:57,  5.31it/s]Processing 0020.jpg ...\n",
            "  6%|██▋                                       | 21/326 [00:04<00:57,  5.34it/s]Processing 0021.jpg ...\n",
            "  7%|██▊                                       | 22/326 [00:04<00:57,  5.32it/s]Processing 0022.jpg ...\n",
            "  7%|██▉                                       | 23/326 [00:04<00:56,  5.37it/s]Processing 0023.jpg ...\n",
            "  7%|███                                       | 24/326 [00:04<00:55,  5.42it/s]Processing 0024.jpg ...\n",
            "  8%|███▏                                      | 25/326 [00:04<00:54,  5.48it/s]Processing 0025.jpg ...\n",
            "  8%|███▎                                      | 26/326 [00:05<00:54,  5.46it/s]Processing 0026.jpg ...\n",
            "  8%|███▍                                      | 27/326 [00:05<00:55,  5.38it/s]Processing 0027.jpg ...\n",
            "  9%|███▌                                      | 28/326 [00:05<00:54,  5.42it/s]Processing 0028.jpg ...\n",
            "  9%|███▋                                      | 29/326 [00:05<00:54,  5.43it/s]Processing 0029.jpg ...\n",
            "  9%|███▊                                      | 30/326 [00:05<00:54,  5.41it/s]Processing 0030.jpg ...\n",
            " 10%|███▉                                      | 31/326 [00:05<00:54,  5.39it/s]Processing 0031.jpg ...\n",
            " 10%|████                                      | 32/326 [00:06<00:54,  5.41it/s]Processing 0032.jpg ...\n",
            " 10%|████▎                                     | 33/326 [00:06<00:54,  5.38it/s]Processing 0033.jpg ...\n",
            " 10%|████▍                                     | 34/326 [00:06<00:54,  5.38it/s]Processing 0034.jpg ...\n",
            " 11%|████▌                                     | 35/326 [00:06<00:53,  5.39it/s]Processing 0035.jpg ...\n",
            " 11%|████▋                                     | 36/326 [00:06<00:54,  5.37it/s]Processing 0036.jpg ...\n",
            " 11%|████▊                                     | 37/326 [00:07<00:54,  5.28it/s]Processing 0037.jpg ...\n",
            " 12%|████▉                                     | 38/326 [00:07<00:54,  5.26it/s]Processing 0038.jpg ...\n",
            " 12%|█████                                     | 39/326 [00:07<00:53,  5.33it/s]Processing 0039.jpg ...\n",
            " 12%|█████▏                                    | 40/326 [00:07<00:52,  5.40it/s]Processing 0040.jpg ...\n",
            " 13%|█████▎                                    | 41/326 [00:07<00:52,  5.45it/s]Processing 0041.jpg ...\n",
            " 13%|█████▍                                    | 42/326 [00:08<00:51,  5.46it/s]Processing 0042.jpg ...\n",
            " 13%|█████▌                                    | 43/326 [00:08<00:51,  5.48it/s]Processing 0043.jpg ...\n",
            " 13%|█████▋                                    | 44/326 [00:08<00:51,  5.42it/s]Processing 0044.jpg ...\n",
            " 14%|█████▊                                    | 45/326 [00:08<00:51,  5.41it/s]Processing 0045.jpg ...\n",
            " 14%|█████▉                                    | 46/326 [00:08<00:52,  5.38it/s]Processing 0046.jpg ...\n",
            " 14%|██████                                    | 47/326 [00:08<00:51,  5.41it/s]Processing 0047.jpg ...\n",
            " 15%|██████▏                                   | 48/326 [00:09<00:51,  5.38it/s]Processing 0048.jpg ...\n",
            " 15%|██████▎                                   | 49/326 [00:09<00:51,  5.42it/s]Processing 0049.jpg ...\n",
            " 15%|██████▍                                   | 50/326 [00:09<00:50,  5.42it/s]Processing 0050.jpg ...\n",
            " 16%|██████▌                                   | 51/326 [00:09<00:50,  5.42it/s]Processing 0051.jpg ...\n",
            " 16%|██████▋                                   | 52/326 [00:09<00:50,  5.39it/s]Processing 0052.jpg ...\n",
            " 16%|██████▊                                   | 53/326 [00:10<00:51,  5.35it/s]Processing 0053.jpg ...\n",
            " 17%|██████▉                                   | 54/326 [00:10<00:50,  5.38it/s]Processing 0054.jpg ...\n",
            " 17%|███████                                   | 55/326 [00:10<00:49,  5.42it/s]Processing 0055.jpg ...\n",
            " 17%|███████▏                                  | 56/326 [00:10<00:49,  5.44it/s]Processing 0056.jpg ...\n",
            " 17%|███████▎                                  | 57/326 [00:10<00:49,  5.43it/s]Processing 0057.jpg ...\n",
            " 18%|███████▍                                  | 58/326 [00:11<00:49,  5.40it/s]Processing 0058.jpg ...\n",
            " 18%|███████▌                                  | 59/326 [00:11<00:49,  5.35it/s]Processing 0059.jpg ...\n",
            " 18%|███████▋                                  | 60/326 [00:11<00:49,  5.33it/s]Processing 0060.jpg ...\n",
            " 19%|███████▊                                  | 61/326 [00:11<00:51,  5.13it/s]Processing 0061.jpg ...\n",
            " 19%|███████▉                                  | 62/326 [00:11<00:51,  5.12it/s]Processing 0062.jpg ...\n",
            " 19%|████████                                  | 63/326 [00:11<00:51,  5.08it/s]Processing 0063.jpg ...\n",
            " 20%|████████▏                                 | 64/326 [00:12<00:51,  5.10it/s]Processing 0064.jpg ...\n",
            " 20%|████████▎                                 | 65/326 [00:12<00:50,  5.21it/s]Processing 0065.jpg ...\n",
            " 20%|████████▌                                 | 66/326 [00:12<00:49,  5.21it/s]Processing 0066.jpg ...\n",
            " 21%|████████▋                                 | 67/326 [00:12<00:49,  5.24it/s]Processing 0067.jpg ...\n",
            " 21%|████████▊                                 | 68/326 [00:12<00:48,  5.29it/s]Processing 0068.jpg ...\n",
            " 21%|████████▉                                 | 69/326 [00:13<00:48,  5.29it/s]Processing 0069.jpg ...\n",
            " 21%|█████████                                 | 70/326 [00:13<00:47,  5.38it/s]Processing 0070.jpg ...\n",
            " 22%|█████████▏                                | 71/326 [00:13<00:46,  5.44it/s]Processing 0071.jpg ...\n",
            " 22%|█████████▎                                | 72/326 [00:13<00:46,  5.41it/s]Processing 0072.jpg ...\n",
            " 22%|█████████▍                                | 73/326 [00:13<00:46,  5.43it/s]Processing 0073.jpg ...\n",
            " 23%|█████████▌                                | 74/326 [00:14<00:46,  5.47it/s]Processing 0074.jpg ...\n",
            " 23%|█████████▋                                | 75/326 [00:14<00:45,  5.48it/s]Processing 0075.jpg ...\n",
            " 23%|█████████▊                                | 76/326 [00:14<00:45,  5.46it/s]Processing 0076.jpg ...\n",
            " 24%|█████████▉                                | 77/326 [00:14<00:45,  5.47it/s]Processing 0077.jpg ...\n",
            " 24%|██████████                                | 78/326 [00:14<00:45,  5.46it/s]Processing 0078.jpg ...\n",
            " 24%|██████████▏                               | 79/326 [00:14<00:45,  5.45it/s]Processing 0079.jpg ...\n",
            " 25%|██████████▎                               | 80/326 [00:15<00:45,  5.46it/s]Processing 0080.jpg ...\n",
            " 25%|██████████▍                               | 81/326 [00:15<00:44,  5.45it/s]Processing 0081.jpg ...\n",
            " 25%|██████████▌                               | 82/326 [00:15<00:44,  5.46it/s]Processing 0082.jpg ...\n",
            " 25%|██████████▋                               | 83/326 [00:15<00:44,  5.49it/s]Processing 0083.jpg ...\n",
            " 26%|██████████▊                               | 84/326 [00:15<00:43,  5.51it/s]Processing 0084.jpg ...\n",
            " 26%|██████████▉                               | 85/326 [00:16<00:43,  5.52it/s]Processing 0085.jpg ...\n",
            " 26%|███████████                               | 86/326 [00:16<00:43,  5.53it/s]Processing 0086.jpg ...\n",
            " 27%|███████████▏                              | 87/326 [00:16<00:43,  5.50it/s]Processing 0087.jpg ...\n",
            " 27%|███████████▎                              | 88/326 [00:16<00:43,  5.51it/s]Processing 0088.jpg ...\n",
            " 27%|███████████▍                              | 89/326 [00:16<00:43,  5.43it/s]Processing 0089.jpg ...\n",
            " 28%|███████████▌                              | 90/326 [00:16<00:43,  5.43it/s]Processing 0090.jpg ...\n",
            " 28%|███████████▋                              | 91/326 [00:17<00:43,  5.42it/s]Processing 0091.jpg ...\n",
            " 28%|███████████▊                              | 92/326 [00:17<00:43,  5.38it/s]Processing 0092.jpg ...\n",
            " 29%|███████████▉                              | 93/326 [00:17<00:43,  5.39it/s]Processing 0093.jpg ...\n",
            " 29%|████████████                              | 94/326 [00:17<00:42,  5.41it/s]Processing 0094.jpg ...\n",
            " 29%|████████████▏                             | 95/326 [00:17<00:43,  5.35it/s]Processing 0095.jpg ...\n",
            " 29%|████████████▎                             | 96/326 [00:18<00:43,  5.31it/s]Processing 0096.jpg ...\n",
            " 30%|████████████▍                             | 97/326 [00:18<00:42,  5.33it/s]Processing 0097.jpg ...\n",
            " 30%|████████████▋                             | 98/326 [00:18<00:42,  5.37it/s]Processing 0098.jpg ...\n",
            " 30%|████████████▊                             | 99/326 [00:18<00:42,  5.40it/s]Processing 0099.jpg ...\n",
            " 31%|████████████▌                            | 100/326 [00:18<00:41,  5.41it/s]Processing 0100.jpg ...\n",
            " 31%|████████████▋                            | 101/326 [00:19<00:42,  5.29it/s]Processing 0101.jpg ...\n",
            " 31%|████████████▊                            | 102/326 [00:19<00:42,  5.33it/s]Processing 0102.jpg ...\n",
            " 32%|████████████▉                            | 103/326 [00:19<00:41,  5.36it/s]Processing 0103.jpg ...\n",
            " 32%|█████████████                            | 104/326 [00:19<00:41,  5.37it/s]Processing 0104.jpg ...\n",
            " 32%|█████████████▏                           | 105/326 [00:19<00:40,  5.41it/s]Processing 0105.jpg ...\n",
            " 33%|█████████████▎                           | 106/326 [00:19<00:40,  5.46it/s]Processing 0106.jpg ...\n",
            " 33%|█████████████▍                           | 107/326 [00:20<00:40,  5.44it/s]Processing 0107.jpg ...\n",
            " 33%|█████████████▌                           | 108/326 [00:20<00:40,  5.41it/s]Processing 0108.jpg ...\n",
            " 33%|█████████████▋                           | 109/326 [00:20<00:40,  5.41it/s]Processing 0109.jpg ...\n",
            " 34%|█████████████▊                           | 110/326 [00:20<00:40,  5.39it/s]Processing 0110.jpg ...\n",
            " 34%|█████████████▉                           | 111/326 [00:20<00:39,  5.44it/s]Processing 0111.jpg ...\n",
            " 34%|██████████████                           | 112/326 [00:21<00:39,  5.41it/s]Processing 0112.jpg ...\n",
            " 35%|██████████████▏                          | 113/326 [00:21<00:39,  5.41it/s]Processing 0113.jpg ...\n",
            " 35%|██████████████▎                          | 114/326 [00:21<00:39,  5.34it/s]Processing 0114.jpg ...\n",
            " 35%|██████████████▍                          | 115/326 [00:21<00:39,  5.36it/s]Processing 0115.jpg ...\n",
            " 36%|██████████████▌                          | 116/326 [00:21<00:39,  5.36it/s]Processing 0116.jpg ...\n",
            " 36%|██████████████▋                          | 117/326 [00:21<00:38,  5.39it/s]Processing 0117.jpg ...\n",
            " 36%|██████████████▊                          | 118/326 [00:22<00:38,  5.34it/s]Processing 0118.jpg ...\n",
            " 37%|██████████████▉                          | 119/326 [00:22<00:38,  5.31it/s]Processing 0119.jpg ...\n",
            " 37%|███████████████                          | 120/326 [00:22<00:38,  5.34it/s]Processing 0120.jpg ...\n",
            " 37%|███████████████▏                         | 121/326 [00:22<00:38,  5.36it/s]Processing 0121.jpg ...\n",
            " 37%|███████████████▎                         | 122/326 [00:22<00:37,  5.43it/s]Processing 0122.jpg ...\n",
            " 38%|███████████████▍                         | 123/326 [00:23<00:37,  5.35it/s]Processing 0123.jpg ...\n",
            " 38%|███████████████▌                         | 124/326 [00:23<00:37,  5.39it/s]Processing 0124.jpg ...\n",
            " 38%|███████████████▋                         | 125/326 [00:23<00:37,  5.33it/s]Processing 0125.jpg ...\n",
            " 39%|███████████████▊                         | 126/326 [00:23<00:37,  5.32it/s]Processing 0126.jpg ...\n",
            " 39%|███████████████▉                         | 127/326 [00:23<00:37,  5.34it/s]Processing 0127.jpg ...\n",
            " 39%|████████████████                         | 128/326 [00:24<00:36,  5.36it/s]Processing 0128.jpg ...\n",
            " 40%|████████████████▏                        | 129/326 [00:24<00:37,  5.22it/s]Processing 0129.jpg ...\n",
            " 40%|████████████████▎                        | 130/326 [00:24<00:37,  5.24it/s]Processing 0130.jpg ...\n",
            " 40%|████████████████▍                        | 131/326 [00:24<00:36,  5.31it/s]Processing 0131.jpg ...\n",
            " 40%|████████████████▌                        | 132/326 [00:24<00:37,  5.21it/s]Processing 0132.jpg ...\n",
            " 41%|████████████████▋                        | 133/326 [00:25<00:37,  5.13it/s]Processing 0133.jpg ...\n",
            " 41%|████████████████▊                        | 134/326 [00:25<00:37,  5.15it/s]Processing 0134.jpg ...\n",
            " 41%|████████████████▉                        | 135/326 [00:25<00:38,  5.02it/s]Processing 0135.jpg ...\n",
            " 42%|█████████████████                        | 136/326 [00:25<00:37,  5.08it/s]Processing 0136.jpg ...\n",
            " 42%|█████████████████▏                       | 137/326 [00:25<00:36,  5.14it/s]Processing 0137.jpg ...\n",
            " 42%|█████████████████▎                       | 138/326 [00:25<00:36,  5.20it/s]Processing 0138.jpg ...\n",
            " 43%|█████████████████▍                       | 139/326 [00:26<00:35,  5.20it/s]Processing 0139.jpg ...\n",
            " 43%|█████████████████▌                       | 140/326 [00:26<00:35,  5.25it/s]Processing 0140.jpg ...\n",
            " 43%|█████████████████▋                       | 141/326 [00:26<00:35,  5.28it/s]Processing 0141.jpg ...\n",
            " 44%|█████████████████▊                       | 142/326 [00:26<00:34,  5.35it/s]Processing 0142.jpg ...\n",
            " 44%|█████████████████▉                       | 143/326 [00:26<00:34,  5.35it/s]Processing 0143.jpg ...\n",
            " 44%|██████████████████                       | 144/326 [00:27<00:34,  5.31it/s]Processing 0144.jpg ...\n",
            " 44%|██████████████████▏                      | 145/326 [00:27<00:34,  5.32it/s]Processing 0145.jpg ...\n",
            " 45%|██████████████████▎                      | 146/326 [00:27<00:33,  5.34it/s]Processing 0146.jpg ...\n",
            " 45%|██████████████████▍                      | 147/326 [00:27<00:33,  5.32it/s]Processing 0147.jpg ...\n",
            " 45%|██████████████████▌                      | 148/326 [00:27<00:33,  5.38it/s]Processing 0148.jpg ...\n",
            " 46%|██████████████████▋                      | 149/326 [00:28<00:32,  5.37it/s]Processing 0149.jpg ...\n",
            " 46%|██████████████████▊                      | 150/326 [00:28<00:32,  5.40it/s]Processing 0150.jpg ...\n",
            " 46%|██████████████████▉                      | 151/326 [00:28<00:32,  5.36it/s]Processing 0151.jpg ...\n",
            " 47%|███████████████████                      | 152/326 [00:28<00:32,  5.40it/s]Processing 0152.jpg ...\n",
            " 47%|███████████████████▏                     | 153/326 [00:28<00:31,  5.41it/s]Processing 0153.jpg ...\n",
            " 47%|███████████████████▎                     | 154/326 [00:28<00:32,  5.37it/s]Processing 0154.jpg ...\n",
            " 48%|███████████████████▍                     | 155/326 [00:29<00:31,  5.36it/s]Processing 0155.jpg ...\n",
            " 48%|███████████████████▌                     | 156/326 [00:29<00:31,  5.39it/s]Processing 0156.jpg ...\n",
            " 48%|███████████████████▋                     | 157/326 [00:29<00:31,  5.43it/s]Processing 0157.jpg ...\n",
            " 48%|███████████████████▊                     | 158/326 [00:29<00:31,  5.40it/s]Processing 0158.jpg ...\n",
            " 49%|███████████████████▉                     | 159/326 [00:29<00:31,  5.37it/s]Processing 0159.jpg ...\n",
            " 49%|████████████████████                     | 160/326 [00:30<00:31,  5.35it/s]Processing 0160.jpg ...\n",
            " 49%|████████████████████▏                    | 161/326 [00:30<00:30,  5.35it/s]Processing 0161.jpg ...\n",
            " 50%|████████████████████▎                    | 162/326 [00:30<00:30,  5.31it/s]Processing 0162.jpg ...\n",
            " 50%|████████████████████▌                    | 163/326 [00:30<00:30,  5.28it/s]Processing 0163.jpg ...\n",
            " 50%|████████████████████▋                    | 164/326 [00:30<00:30,  5.29it/s]Processing 0164.jpg ...\n",
            " 51%|████████████████████▊                    | 165/326 [00:31<00:30,  5.32it/s]Processing 0165.jpg ...\n",
            " 51%|████████████████████▉                    | 166/326 [00:31<00:29,  5.36it/s]Processing 0166.jpg ...\n",
            " 51%|█████████████████████                    | 167/326 [00:31<00:29,  5.38it/s]Processing 0167.jpg ...\n",
            " 52%|█████████████████████▏                   | 168/326 [00:31<00:29,  5.38it/s]Processing 0168.jpg ...\n",
            " 52%|█████████████████████▎                   | 169/326 [00:31<00:29,  5.40it/s]Processing 0169.jpg ...\n",
            " 52%|█████████████████████▍                   | 170/326 [00:31<00:28,  5.42it/s]Processing 0170.jpg ...\n",
            " 52%|█████████████████████▌                   | 171/326 [00:32<00:28,  5.40it/s]Processing 0171.jpg ...\n",
            " 53%|█████████████████████▋                   | 172/326 [00:32<00:29,  5.28it/s]Processing 0172.jpg ...\n",
            " 53%|█████████████████████▊                   | 173/326 [00:32<00:28,  5.33it/s]Processing 0173.jpg ...\n",
            " 53%|█████████████████████▉                   | 174/326 [00:32<00:28,  5.38it/s]Processing 0174.jpg ...\n",
            " 54%|██████████████████████                   | 175/326 [00:32<00:27,  5.42it/s]Processing 0175.jpg ...\n",
            " 54%|██████████████████████▏                  | 176/326 [00:33<00:27,  5.42it/s]Processing 0176.jpg ...\n",
            " 54%|██████████████████████▎                  | 177/326 [00:33<00:27,  5.41it/s]Processing 0177.jpg ...\n",
            " 55%|██████████████████████▍                  | 178/326 [00:33<00:27,  5.44it/s]Processing 0178.jpg ...\n",
            " 55%|██████████████████████▌                  | 179/326 [00:33<00:26,  5.45it/s]Processing 0179.jpg ...\n",
            " 55%|██████████████████████▋                  | 180/326 [00:33<00:26,  5.45it/s]Processing 0180.jpg ...\n",
            " 56%|██████████████████████▊                  | 181/326 [00:33<00:26,  5.45it/s]Processing 0181.jpg ...\n",
            " 56%|██████████████████████▉                  | 182/326 [00:34<00:26,  5.44it/s]Processing 0182.jpg ...\n",
            " 56%|███████████████████████                  | 183/326 [00:34<00:26,  5.40it/s]Processing 0183.jpg ...\n",
            " 56%|███████████████████████▏                 | 184/326 [00:34<00:26,  5.42it/s]Processing 0184.jpg ...\n",
            " 57%|███████████████████████▎                 | 185/326 [00:34<00:25,  5.42it/s]Processing 0185.jpg ...\n",
            " 57%|███████████████████████▍                 | 186/326 [00:34<00:26,  5.36it/s]Processing 0186.jpg ...\n",
            " 57%|███████████████████████▌                 | 187/326 [00:35<00:25,  5.40it/s]Processing 0187.jpg ...\n",
            " 58%|███████████████████████▋                 | 188/326 [00:35<00:25,  5.38it/s]Processing 0188.jpg ...\n",
            " 58%|███████████████████████▊                 | 189/326 [00:35<00:25,  5.39it/s]Processing 0189.jpg ...\n",
            " 58%|███████████████████████▉                 | 190/326 [00:35<00:25,  5.42it/s]Processing 0190.jpg ...\n",
            " 59%|████████████████████████                 | 191/326 [00:35<00:24,  5.41it/s]Processing 0191.jpg ...\n",
            " 59%|████████████████████████▏                | 192/326 [00:36<00:24,  5.43it/s]Processing 0192.jpg ...\n",
            " 59%|████████████████████████▎                | 193/326 [00:36<00:24,  5.45it/s]Processing 0193.jpg ...\n",
            " 60%|████████████████████████▍                | 194/326 [00:36<00:24,  5.46it/s]Processing 0194.jpg ...\n",
            " 60%|████████████████████████▌                | 195/326 [00:36<00:24,  5.44it/s]Processing 0195.jpg ...\n",
            " 60%|████████████████████████▋                | 196/326 [00:36<00:23,  5.44it/s]Processing 0196.jpg ...\n",
            " 60%|████████████████████████▊                | 197/326 [00:36<00:23,  5.39it/s]Processing 0197.jpg ...\n",
            " 61%|████████████████████████▉                | 198/326 [00:37<00:23,  5.42it/s]Processing 0198.jpg ...\n",
            " 61%|█████████████████████████                | 199/326 [00:37<00:23,  5.42it/s]Processing 0199.jpg ...\n",
            " 61%|█████████████████████████▏               | 200/326 [00:37<00:23,  5.39it/s]Processing 0200.jpg ...\n",
            " 62%|█████████████████████████▎               | 201/326 [00:37<00:23,  5.41it/s]Processing 0201.jpg ...\n",
            " 62%|█████████████████████████▍               | 202/326 [00:37<00:22,  5.44it/s]Processing 0202.jpg ...\n",
            " 62%|█████████████████████████▌               | 203/326 [00:38<00:22,  5.44it/s]Processing 0203.jpg ...\n",
            " 63%|█████████████████████████▋               | 204/326 [00:38<00:22,  5.37it/s]Processing 0204.jpg ...\n",
            " 63%|█████████████████████████▊               | 205/326 [00:38<00:22,  5.37it/s]Processing 0205.jpg ...\n",
            " 63%|█████████████████████████▉               | 206/326 [00:38<00:22,  5.34it/s]Processing 0206.jpg ...\n",
            " 63%|██████████████████████████               | 207/326 [00:38<00:22,  5.33it/s]Processing 0207.jpg ...\n",
            " 64%|██████████████████████████▏              | 208/326 [00:38<00:21,  5.40it/s]Processing 0208.jpg ...\n",
            " 64%|██████████████████████████▎              | 209/326 [00:39<00:21,  5.36it/s]Processing 0209.jpg ...\n",
            " 64%|██████████████████████████▍              | 210/326 [00:39<00:21,  5.37it/s]Processing 0210.jpg ...\n",
            " 65%|██████████████████████████▌              | 211/326 [00:39<00:21,  5.36it/s]Processing 0211.jpg ...\n",
            " 65%|██████████████████████████▋              | 212/326 [00:39<00:21,  5.40it/s]Processing 0212.jpg ...\n",
            " 65%|██████████████████████████▊              | 213/326 [00:39<00:20,  5.44it/s]Processing 0213.jpg ...\n",
            " 66%|██████████████████████████▉              | 214/326 [00:40<00:20,  5.44it/s]Processing 0214.jpg ...\n",
            " 66%|███████████████████████████              | 215/326 [00:40<00:20,  5.43it/s]Processing 0215.jpg ...\n",
            " 66%|███████████████████████████▏             | 216/326 [00:40<00:20,  5.40it/s]Processing 0216.jpg ...\n",
            " 67%|███████████████████████████▎             | 217/326 [00:40<00:20,  5.25it/s]Processing 0217.jpg ...\n",
            " 67%|███████████████████████████▍             | 218/326 [00:40<00:20,  5.30it/s]Processing 0218.jpg ...\n",
            " 67%|███████████████████████████▌             | 219/326 [00:41<00:20,  5.26it/s]Processing 0219.jpg ...\n",
            " 67%|███████████████████████████▋             | 220/326 [00:41<00:19,  5.31it/s]Processing 0220.jpg ...\n",
            " 68%|███████████████████████████▊             | 221/326 [00:41<00:19,  5.36it/s]Processing 0221.jpg ...\n",
            " 68%|███████████████████████████▉             | 222/326 [00:41<00:19,  5.40it/s]Processing 0222.jpg ...\n",
            " 68%|████████████████████████████             | 223/326 [00:41<00:19,  5.40it/s]Processing 0223.jpg ...\n",
            " 69%|████████████████████████████▏            | 224/326 [00:41<00:18,  5.39it/s]Processing 0224.jpg ...\n",
            " 69%|████████████████████████████▎            | 225/326 [00:42<00:18,  5.38it/s]Processing 0225.jpg ...\n",
            " 69%|████████████████████████████▍            | 226/326 [00:42<00:18,  5.39it/s]Processing 0226.jpg ...\n",
            " 70%|████████████████████████████▌            | 227/326 [00:42<00:18,  5.36it/s]Processing 0227.jpg ...\n",
            " 70%|████████████████████████████▋            | 228/326 [00:42<00:18,  5.33it/s]Processing 0228.jpg ...\n",
            " 70%|████████████████████████████▊            | 229/326 [00:42<00:18,  5.35it/s]Processing 0229.jpg ...\n",
            " 71%|████████████████████████████▉            | 230/326 [00:43<00:17,  5.38it/s]Processing 0230.jpg ...\n",
            " 71%|█████████████████████████████            | 231/326 [00:43<00:17,  5.29it/s]Processing 0231.jpg ...\n",
            " 71%|█████████████████████████████▏           | 232/326 [00:43<00:17,  5.31it/s]Processing 0232.jpg ...\n",
            " 71%|█████████████████████████████▎           | 233/326 [00:43<00:18,  5.16it/s]Processing 0233.jpg ...\n",
            " 72%|█████████████████████████████▍           | 234/326 [00:43<00:17,  5.18it/s]Processing 0234.jpg ...\n",
            " 72%|█████████████████████████████▌           | 235/326 [00:44<00:17,  5.26it/s]Processing 0235.jpg ...\n",
            " 72%|█████████████████████████████▋           | 236/326 [00:44<00:16,  5.32it/s]Processing 0236.jpg ...\n",
            " 73%|█████████████████████████████▊           | 237/326 [00:44<00:16,  5.27it/s]Processing 0237.jpg ...\n",
            " 73%|█████████████████████████████▉           | 238/326 [00:44<00:16,  5.25it/s]Processing 0238.jpg ...\n",
            " 73%|██████████████████████████████           | 239/326 [00:44<00:16,  5.29it/s]Processing 0239.jpg ...\n",
            " 74%|██████████████████████████████▏          | 240/326 [00:44<00:16,  5.34it/s]Processing 0240.jpg ...\n",
            " 74%|██████████████████████████████▎          | 241/326 [00:45<00:15,  5.35it/s]Processing 0241.jpg ...\n",
            " 74%|██████████████████████████████▍          | 242/326 [00:45<00:15,  5.37it/s]Processing 0242.jpg ...\n",
            " 75%|██████████████████████████████▌          | 243/326 [00:45<00:15,  5.40it/s]Processing 0243.jpg ...\n",
            " 75%|██████████████████████████████▋          | 244/326 [00:45<00:15,  5.38it/s]Processing 0244.jpg ...\n",
            " 75%|██████████████████████████████▊          | 245/326 [00:45<00:15,  5.35it/s]Processing 0245.jpg ...\n",
            " 75%|██████████████████████████████▉          | 246/326 [00:46<00:15,  5.31it/s]Processing 0246.jpg ...\n",
            " 76%|███████████████████████████████          | 247/326 [00:46<00:14,  5.30it/s]Processing 0247.jpg ...\n",
            " 76%|███████████████████████████████▏         | 248/326 [00:46<00:14,  5.30it/s]Processing 0248.jpg ...\n",
            " 76%|███████████████████████████████▎         | 249/326 [00:46<00:14,  5.32it/s]Processing 0249.jpg ...\n",
            " 77%|███████████████████████████████▍         | 250/326 [00:46<00:14,  5.33it/s]Processing 0250.jpg ...\n",
            " 77%|███████████████████████████████▌         | 251/326 [00:47<00:14,  5.36it/s]Processing 0251.jpg ...\n",
            " 77%|███████████████████████████████▋         | 252/326 [00:47<00:13,  5.37it/s]Processing 0252.jpg ...\n",
            " 78%|███████████████████████████████▊         | 253/326 [00:47<00:13,  5.36it/s]Processing 0253.jpg ...\n",
            " 78%|███████████████████████████████▉         | 254/326 [00:47<00:13,  5.38it/s]Processing 0254.jpg ...\n",
            " 78%|████████████████████████████████         | 255/326 [00:47<00:13,  5.36it/s]Processing 0255.jpg ...\n",
            " 79%|████████████████████████████████▏        | 256/326 [00:47<00:13,  5.38it/s]Processing 0256.jpg ...\n",
            " 79%|████████████████████████████████▎        | 257/326 [00:48<00:12,  5.40it/s]Processing 0257.jpg ...\n",
            " 79%|████████████████████████████████▍        | 258/326 [00:48<00:12,  5.44it/s]Processing 0258.jpg ...\n",
            " 79%|████████████████████████████████▌        | 259/326 [00:48<00:12,  5.44it/s]Processing 0259.jpg ...\n",
            " 80%|████████████████████████████████▋        | 260/326 [00:48<00:12,  5.43it/s]Processing 0260.jpg ...\n",
            " 80%|████████████████████████████████▊        | 261/326 [00:48<00:11,  5.44it/s]Processing 0261.jpg ...\n",
            " 80%|████████████████████████████████▉        | 262/326 [00:49<00:11,  5.45it/s]Processing 0262.jpg ...\n",
            " 81%|█████████████████████████████████        | 263/326 [00:49<00:11,  5.40it/s]Processing 0263.jpg ...\n",
            " 81%|█████████████████████████████████▏       | 264/326 [00:49<00:11,  5.40it/s]Processing 0264.jpg ...\n",
            " 81%|█████████████████████████████████▎       | 265/326 [00:49<00:11,  5.43it/s]Processing 0265.jpg ...\n",
            " 82%|█████████████████████████████████▍       | 266/326 [00:49<00:11,  5.45it/s]Processing 0266.jpg ...\n",
            " 82%|█████████████████████████████████▌       | 267/326 [00:49<00:10,  5.42it/s]Processing 0267.jpg ...\n",
            " 82%|█████████████████████████████████▋       | 268/326 [00:50<00:10,  5.40it/s]Processing 0268.jpg ...\n",
            " 83%|█████████████████████████████████▊       | 269/326 [00:50<00:10,  5.38it/s]Processing 0269.jpg ...\n",
            " 83%|█████████████████████████████████▉       | 270/326 [00:50<00:10,  5.39it/s]Processing 0270.jpg ...\n",
            " 83%|██████████████████████████████████       | 271/326 [00:50<00:10,  5.40it/s]Processing 0271.jpg ...\n",
            " 83%|██████████████████████████████████▏      | 272/326 [00:50<00:10,  5.36it/s]Processing 0272.jpg ...\n",
            " 84%|██████████████████████████████████▎      | 273/326 [00:51<00:09,  5.36it/s]Processing 0273.jpg ...\n",
            " 84%|██████████████████████████████████▍      | 274/326 [00:51<00:09,  5.36it/s]Processing 0274.jpg ...\n",
            " 84%|██████████████████████████████████▌      | 275/326 [00:51<00:09,  5.37it/s]Processing 0275.jpg ...\n",
            " 85%|██████████████████████████████████▋      | 276/326 [00:51<00:09,  5.28it/s]Processing 0276.jpg ...\n",
            " 85%|██████████████████████████████████▊      | 277/326 [00:51<00:09,  5.28it/s]Processing 0277.jpg ...\n",
            " 85%|██████████████████████████████████▉      | 278/326 [00:52<00:09,  5.28it/s]Processing 0278.jpg ...\n",
            " 86%|███████████████████████████████████      | 279/326 [00:52<00:08,  5.27it/s]Processing 0279.jpg ...\n",
            " 86%|███████████████████████████████████▏     | 280/326 [00:52<00:08,  5.25it/s]Processing 0280.jpg ...\n",
            " 86%|███████████████████████████████████▎     | 281/326 [00:52<00:08,  5.30it/s]Processing 0281.jpg ...\n",
            " 87%|███████████████████████████████████▍     | 282/326 [00:52<00:08,  5.30it/s]Processing 0282.jpg ...\n",
            " 87%|███████████████████████████████████▌     | 283/326 [00:53<00:08,  4.94it/s]Processing 0283.jpg ...\n",
            " 87%|███████████████████████████████████▋     | 284/326 [00:53<00:08,  4.99it/s]Processing 0284.jpg ...\n",
            " 87%|███████████████████████████████████▊     | 285/326 [00:53<00:08,  5.06it/s]Processing 0285.jpg ...\n",
            " 88%|███████████████████████████████████▉     | 286/326 [00:53<00:07,  5.15it/s]Processing 0286.jpg ...\n",
            " 88%|████████████████████████████████████     | 287/326 [00:53<00:07,  5.20it/s]Processing 0287.jpg ...\n",
            " 88%|████████████████████████████████████▏    | 288/326 [00:53<00:07,  5.25it/s]Processing 0288.jpg ...\n",
            " 89%|████████████████████████████████████▎    | 289/326 [00:54<00:07,  5.25it/s]Processing 0289.jpg ...\n",
            " 89%|████████████████████████████████████▍    | 290/326 [00:54<00:06,  5.26it/s]Processing 0290.jpg ...\n",
            " 89%|████████████████████████████████████▌    | 291/326 [00:54<00:06,  5.30it/s]Processing 0291.jpg ...\n",
            " 90%|████████████████████████████████████▋    | 292/326 [00:54<00:06,  5.26it/s]Processing 0292.jpg ...\n",
            " 90%|████████████████████████████████████▊    | 293/326 [00:54<00:06,  5.19it/s]Processing 0293.jpg ...\n",
            " 90%|████████████████████████████████████▉    | 294/326 [00:55<00:06,  5.21it/s]Processing 0294.jpg ...\n",
            " 90%|█████████████████████████████████████    | 295/326 [00:55<00:05,  5.24it/s]Processing 0295.jpg ...\n",
            " 91%|█████████████████████████████████████▏   | 296/326 [00:55<00:05,  5.24it/s]Processing 0296.jpg ...\n",
            " 91%|█████████████████████████████████████▎   | 297/326 [00:55<00:05,  5.26it/s]Processing 0297.jpg ...\n",
            " 91%|█████████████████████████████████████▍   | 298/326 [00:55<00:05,  5.24it/s]Processing 0298.jpg ...\n",
            " 92%|█████████████████████████████████████▌   | 299/326 [00:56<00:05,  5.24it/s]Processing 0299.jpg ...\n",
            " 92%|█████████████████████████████████████▋   | 300/326 [00:56<00:04,  5.24it/s]Processing 0300.jpg ...\n",
            " 92%|█████████████████████████████████████▊   | 301/326 [00:56<00:04,  5.27it/s]Processing 0301.jpg ...\n",
            " 93%|█████████████████████████████████████▉   | 302/326 [00:56<00:04,  5.29it/s]Processing 0302.jpg ...\n",
            " 93%|██████████████████████████████████████   | 303/326 [00:56<00:04,  5.31it/s]Processing 0303.jpg ...\n",
            " 93%|██████████████████████████████████████▏  | 304/326 [00:57<00:04,  5.33it/s]Processing 0304.jpg ...\n",
            " 94%|██████████████████████████████████████▎  | 305/326 [00:57<00:03,  5.29it/s]Processing 0305.jpg ...\n",
            " 94%|██████████████████████████████████████▍  | 306/326 [00:57<00:03,  5.33it/s]Processing 0306.jpg ...\n",
            " 94%|██████████████████████████████████████▌  | 307/326 [00:57<00:03,  5.33it/s]Processing 0307.jpg ...\n",
            " 94%|██████████████████████████████████████▋  | 308/326 [00:57<00:03,  5.34it/s]Processing 0308.jpg ...\n",
            " 95%|██████████████████████████████████████▊  | 309/326 [00:57<00:03,  5.33it/s]Processing 0309.jpg ...\n",
            " 95%|██████████████████████████████████████▉  | 310/326 [00:58<00:03,  5.29it/s]Processing 0310.jpg ...\n",
            " 95%|███████████████████████████████████████  | 311/326 [00:58<00:02,  5.29it/s]Processing 0311.jpg ...\n",
            " 96%|███████████████████████████████████████▏ | 312/326 [00:58<00:02,  5.33it/s]Processing 0312.jpg ...\n",
            " 96%|███████████████████████████████████████▎ | 313/326 [00:58<00:02,  5.29it/s]Processing 0313.jpg ...\n",
            " 96%|███████████████████████████████████████▍ | 314/326 [00:58<00:02,  5.30it/s]Processing 0314.jpg ...\n",
            " 97%|███████████████████████████████████████▌ | 315/326 [00:59<00:02,  5.32it/s]Processing 0315.jpg ...\n",
            " 97%|███████████████████████████████████████▋ | 316/326 [00:59<00:01,  5.32it/s]Processing 0316.jpg ...\n",
            " 97%|███████████████████████████████████████▊ | 317/326 [00:59<00:01,  5.36it/s]Processing 0317.jpg ...\n",
            " 98%|███████████████████████████████████████▉ | 318/326 [00:59<00:01,  5.37it/s]Processing 0318.jpg ...\n",
            " 98%|████████████████████████████████████████ | 319/326 [00:59<00:01,  5.33it/s]Processing 0319.jpg ...\n",
            " 98%|████████████████████████████████████████▏| 320/326 [01:00<00:01,  5.34it/s]Processing 0320.jpg ...\n",
            " 98%|████████████████████████████████████████▎| 321/326 [01:00<00:00,  5.28it/s]Processing 0321.jpg ...\n",
            " 99%|████████████████████████████████████████▍| 322/326 [01:00<00:00,  5.34it/s]Processing 0322.jpg ...\n",
            " 99%|████████████████████████████████████████▌| 323/326 [01:00<00:00,  5.28it/s]Processing 0323.jpg ...\n",
            " 99%|████████████████████████████████████████▋| 324/326 [01:00<00:00,  5.32it/s]Processing 0324.jpg ...\n",
            "100%|████████████████████████████████████████▊| 325/326 [01:00<00:00,  5.34it/s]Processing 0325.jpg ...\n",
            "100%|█████████████████████████████████████████| 326/326 [01:01<00:00,  5.33it/s]\n",
            "Results are in the [/home/richardliu/code/github.com/c4fun/Wav2Lip-GFPGAN/outputs] folder.\n"
          ]
        }
      ],
      "source": [
        "!cd $gfpganFolderName && \\\n",
        "  python inference_gfpgan.py -i $unProcessedFramesFolderPath -o $outputPath -v 1.4 -s 2 --only_center_face --bg_upsampler None"
      ]
    },
    {
      "cell_type": "code",
      "execution_count": 12,
      "metadata": {
        "id": "XibzGPIVJfvP"
      },
      "outputs": [
        {
          "name": "stderr",
          "output_type": "stream",
          "text": [
            "  0%|          | 0/2 [00:00<?, ?it/s]"
          ]
        },
        {
          "name": "stdout",
          "output_type": "stream",
          "text": [
            "processing  0 300\n"
          ]
        },
        {
          "name": "stderr",
          "output_type": "stream",
          "text": [
            "100%|██████████| 300/300 [00:03<00:00, 83.06it/s]\n",
            " 50%|█████     | 1/2 [00:06<00:06,  6.02s/it]"
          ]
        },
        {
          "name": "stdout",
          "output_type": "stream",
          "text": [
            "processing  300 600\n"
          ]
        },
        {
          "name": "stderr",
          "output_type": "stream",
          "text": [
            "100%|██████████| 26/26 [00:00<00:00, 73.85it/s]\n",
            "100%|██████████| 2/2 [00:06<00:00,  3.30s/it]\n"
          ]
        }
      ],
      "source": [
        "import os\n",
        "restoredFramesPath = outputPath + '/restored_imgs/'\n",
        "processedVideoOutputPath = outputPath\n",
        "\n",
        "dir_list = os.listdir(restoredFramesPath)\n",
        "dir_list.sort()\n",
        "\n",
        "import cv2\n",
        "import numpy as np\n",
        "\n",
        "batch = 0\n",
        "batchSize = 300\n",
        "from tqdm import tqdm\n",
        "for i in tqdm(range(0, len(dir_list), batchSize)):\n",
        "  img_array = []\n",
        "  start, end = i, i+batchSize\n",
        "  print(\"processing \", start, end)\n",
        "  for filename in  tqdm(dir_list[start:end]):\n",
        "      filename = restoredFramesPath+filename;\n",
        "      img = cv2.imread(filename)\n",
        "      if img is None:\n",
        "        continue\n",
        "      height, width, layers = img.shape\n",
        "      size = (width,height)\n",
        "      img_array.append(img)\n",
        "\n",
        "\n",
        "  out = cv2.VideoWriter(processedVideoOutputPath+'/batch_'+str(batch).zfill(4)+'.avi',cv2.VideoWriter_fourcc(*'DIVX'), 30, size)\n",
        "  batch = batch + 1\n",
        " \n",
        "  for i in range(len(img_array)):\n",
        "    out.write(img_array[i])\n",
        "  out.release()\n"
      ]
    },
    {
      "cell_type": "code",
      "execution_count": 13,
      "metadata": {
        "id": "jtde28qwpDd6"
      },
      "outputs": [
        {
          "name": "stdout",
          "output_type": "stream",
          "text": [
            "ffmpeg version 4.4.2-0ubuntu0.22.04.1 Copyright (c) 2000-2021 the FFmpeg developers\n",
            "  built with gcc 11 (Ubuntu 11.2.0-19ubuntu1)\n",
            "  configuration: --prefix=/usr --extra-version=0ubuntu0.22.04.1 --toolchain=hardened --libdir=/usr/lib/x86_64-linux-gnu --incdir=/usr/include/x86_64-linux-gnu --arch=amd64 --enable-gpl --disable-stripping --enable-gnutls --enable-ladspa --enable-libaom --enable-libass --enable-libbluray --enable-libbs2b --enable-libcaca --enable-libcdio --enable-libcodec2 --enable-libdav1d --enable-libflite --enable-libfontconfig --enable-libfreetype --enable-libfribidi --enable-libgme --enable-libgsm --enable-libjack --enable-libmp3lame --enable-libmysofa --enable-libopenjpeg --enable-libopenmpt --enable-libopus --enable-libpulse --enable-librabbitmq --enable-librubberband --enable-libshine --enable-libsnappy --enable-libsoxr --enable-libspeex --enable-libsrt --enable-libssh --enable-libtheora --enable-libtwolame --enable-libvidstab --enable-libvorbis --enable-libvpx --enable-libwebp --enable-libx265 --enable-libxml2 --enable-libxvid --enable-libzimg --enable-libzmq --enable-libzvbi --enable-lv2 --enable-omx --enable-openal --enable-opencl --enable-opengl --enable-sdl2 --enable-pocketsphinx --enable-librsvg --enable-libmfx --enable-libdc1394 --enable-libdrm --enable-libiec61883 --enable-chromaprint --enable-frei0r --enable-libx264 --enable-shared\n",
            "  libavutil      56. 70.100 / 56. 70.100\n",
            "  libavcodec     58.134.100 / 58.134.100\n",
            "  libavformat    58. 76.100 / 58. 76.100\n",
            "  libavdevice    58. 13.100 / 58. 13.100\n",
            "  libavfilter     7.110.100 /  7.110.100\n",
            "  libswscale      5.  9.100 /  5.  9.100\n",
            "  libswresample   3.  9.100 /  3.  9.100\n",
            "  libpostproc    55.  9.100 / 55.  9.100\n",
            "Input #0, concat, from '/home/richardliu/code/github.com/c4fun/Wav2Lip-GFPGAN/outputs/concat.txt':\n",
            "  Duration: N/A, start: 0.000000, bitrate: 7991 kb/s\n",
            "  Stream #0:0: Video: mpeg4 (Simple Profile) (DIVX / 0x58564944), yuv420p, 2560x1440 [SAR 1:1 DAR 16:9], 7991 kb/s, 30 fps, 30 tbr, 30 tbn, 30 tbc\n",
            "Output #0, avi, to '/home/richardliu/code/github.com/c4fun/Wav2Lip-GFPGAN/outputs/concated_output.avi':\n",
            "  Metadata:\n",
            "    ISFT            : Lavf58.76.100\n",
            "  Stream #0:0: Video: mpeg4 (Simple Profile) (DIVX / 0x58564944), yuv420p, 2560x1440 [SAR 1:1 DAR 16:9], q=2-31, 7991 kb/s, 30 fps, 30 tbr, 30 tbn, 30 tbc\n",
            "Stream mapping:\n",
            "  Stream #0:0 -> #0:0 (copy)\n",
            "Press [q] to stop, [?] for help\n",
            "frame=  326 fps=0.0 q=-1.0 Lsize=   10732kB time=00:00:10.86 bitrate=8090.8kbits/s speed=1.73e+03x    \n",
            "video:10719kB audio:0kB subtitle:0kB other streams:0kB global headers:0kB muxing overhead: 0.125717%\n",
            "ffmpeg version 4.4.2-0ubuntu0.22.04.1 Copyright (c) 2000-2021 the FFmpeg developers\n",
            "  built with gcc 11 (Ubuntu 11.2.0-19ubuntu1)\n",
            "  configuration: --prefix=/usr --extra-version=0ubuntu0.22.04.1 --toolchain=hardened --libdir=/usr/lib/x86_64-linux-gnu --incdir=/usr/include/x86_64-linux-gnu --arch=amd64 --enable-gpl --disable-stripping --enable-gnutls --enable-ladspa --enable-libaom --enable-libass --enable-libbluray --enable-libbs2b --enable-libcaca --enable-libcdio --enable-libcodec2 --enable-libdav1d --enable-libflite --enable-libfontconfig --enable-libfreetype --enable-libfribidi --enable-libgme --enable-libgsm --enable-libjack --enable-libmp3lame --enable-libmysofa --enable-libopenjpeg --enable-libopenmpt --enable-libopus --enable-libpulse --enable-librabbitmq --enable-librubberband --enable-libshine --enable-libsnappy --enable-libsoxr --enable-libspeex --enable-libsrt --enable-libssh --enable-libtheora --enable-libtwolame --enable-libvidstab --enable-libvorbis --enable-libvpx --enable-libwebp --enable-libx265 --enable-libxml2 --enable-libxvid --enable-libzimg --enable-libzmq --enable-libzvbi --enable-lv2 --enable-omx --enable-openal --enable-opencl --enable-opengl --enable-sdl2 --enable-pocketsphinx --enable-librsvg --enable-libmfx --enable-libdc1394 --enable-libdrm --enable-libiec61883 --enable-chromaprint --enable-frei0r --enable-libx264 --enable-shared\n",
            "  libavutil      56. 70.100 / 56. 70.100\n",
            "  libavcodec     58.134.100 / 58.134.100\n",
            "  libavformat    58. 76.100 / 58. 76.100\n",
            "  libavdevice    58. 13.100 / 58. 13.100\n",
            "  libavfilter     7.110.100 /  7.110.100\n",
            "  libswscale      5.  9.100 /  5.  9.100\n",
            "  libswresample   3.  9.100 /  3.  9.100\n",
            "  libpostproc    55.  9.100 / 55.  9.100\n",
            "Input #0, avi, from '/home/richardliu/code/github.com/c4fun/Wav2Lip-GFPGAN/outputs/concated_output.avi':\n",
            "  Metadata:\n",
            "    software        : Lavf58.76.100\n",
            "  Duration: 00:00:10.87, start: 0.000000, bitrate: 8090 kb/s\n",
            "  Stream #0:0: Video: mpeg4 (Simple Profile) (DIVX / 0x58564944), yuv420p, 2560x1440 [SAR 1:1 DAR 16:9], 8105 kb/s, 30 fps, 30 tbr, 30 tbn, 30 tbc\n",
            "Input #1, mp3, from '/home/richardliu/code/github.com/c4fun/Wav2Lip-GFPGAN/inputs/linust.mp3':\n",
            "  Metadata:\n",
            "    major_brand     : isom\n",
            "    minor_version   : 512\n",
            "    compatible_brands: isomiso2avc1mp41\n",
            "    encoder         : Lavf58.76.100\n",
            "  Duration: 00:00:11.05, start: 0.025057, bitrate: 192 kb/s\n",
            "  Stream #1:0: Audio: mp3, 44100 Hz, stereo, fltp, 192 kb/s\n",
            "    Metadata:\n",
            "      encoder         : Lavc58.13\n",
            "Stream mapping:\n",
            "  Stream #0:0 -> #0:0 (copy)\n",
            "  Stream #1:0 -> #0:1 (mp3 (mp3float) -> mp3 (libmp3lame))\n",
            "Press [q] to stop, [?] for help\n",
            "Output #0, avi, to '/home/richardliu/code/github.com/c4fun/Wav2Lip-GFPGAN/outputs/final_with_audio.avi':\n",
            "  Metadata:\n",
            "    software        : Lavf58.76.100\n",
            "    ISFT            : Lavf58.76.100\n",
            "  Stream #0:0: Video: mpeg4 (Simple Profile) (DIVX / 0x58564944), yuv420p, 2560x1440 [SAR 1:1 DAR 16:9], q=2-31, 8105 kb/s, 30 fps, 30 tbr, 30 tbn, 30 tbc\n",
            "  Stream #0:1: Audio: mp3 (U[0][0][0] / 0x0055), 44100 Hz, stereo, fltp\n",
            "    Metadata:\n",
            "      encoder         : Lavc58.134.100 libmp3lame\n",
            "frame=  326 fps=0.0 q=-1.0 Lsize=   10917kB time=00:00:10.86 bitrate=8229.6kbits/s speed= 182x    \n",
            "video:10719kB audio:170kB subtitle:0kB other streams:0kB global headers:0kB muxing overhead: 0.251917%\n"
          ]
        }
      ],
      "source": [
        "concatTextFilePath = outputPath + \"/concat.txt\"\n",
        "concatTextFile=open(concatTextFilePath,\"w\")\n",
        "for ips in range(batch):\n",
        "  concatTextFile.write(\"file batch_\" + str(ips).zfill(4) + \".avi\\n\")\n",
        "concatTextFile.close()\n",
        "\n",
        "concatedVideoOutputPath = outputPath + \"/concated_output.avi\"\n",
        "!ffmpeg -y -f concat -i {concatTextFilePath} -c copy {concatedVideoOutputPath} \n",
        "\n",
        "finalProcessedOuputVideo = processedVideoOutputPath+'/final_with_audio.avi'\n",
        "!ffmpeg -y -i {concatedVideoOutputPath} -i {inputAudioPath} -map 0 -map 1:a -c:v copy -shortest {finalProcessedOuputVideo}\n",
        "\n"
      ]
    },
    {
      "cell_type": "code",
      "execution_count": null,
      "metadata": {},
      "outputs": [],
      "source": []
    }
  ],
  "metadata": {
    "accelerator": "GPU",
    "colab": {
      "collapsed_sections": [],
      "name": "Wav2Lip.ipynb",
      "provenance": []
    },
    "gpuClass": "standard",
    "kernelspec": {
      "display_name": "Python 3",
      "name": "python3"
    },
    "language_info": {
      "codemirror_mode": {
        "name": "ipython",
        "version": 3
      },
      "file_extension": ".py",
      "mimetype": "text/x-python",
      "name": "python",
      "nbconvert_exporter": "python",
      "pygments_lexer": "ipython3",
      "version": "3.8.18"
    }
  },
  "nbformat": 4,
  "nbformat_minor": 0
}
